<svg width="76" height="84" viewBox="0 0 76 84" fill="none" xmlns="http://www.w3.org/2000/svg">
<path d="M75.0003 33.9999C74.8223 44.3284 72.8369 53.7984 68.0003 62.9999C61.7785 74.8491 51.3106 81.8729 38.0003 82.9999C30.0683 83.6715 22.4465 81.8091 16.0003 76.9999C13.0829 74.823 10.8034 72.134 9.00032 68.9999C5.28582 62.5311 2.33909 55.3642 1.00032 47.9999C-0.253322 41.0602 1.93586 34.2603 5.00032 27.9999C7.29867 23.2988 10.193 19.6048 14.0003 15.9999C18.6821 11.569 22.9565 6.50098 29.0003 3.9999C35.609 1.26724 42.8344 0.0812937 50.0003 0.999899C55.7114 1.73324 60.7364 5.256 65.0003 8.9999C70.7036 14.0098 74.2806 20.4735 75.0003 27.9999C75.2015 30.0918 75.0313 31.8925 75.0003 33.9999ZM55.0003 42.9999C54.8842 46.6512 54.2772 50.5493 53.0003 53.9999C51.9943 56.7171 49.6237 58.4946 47.0003 59.9999C43.1233 62.2308 39.916 62.7599 36.0003 60.9999C31.5352 58.9929 28.0433 55.2764 26.0003 50.9999C24.9479 48.7922 25.248 46.4083 25.0003 43.9999C24.9307 43.3052 24.3503 42.5789 25.0003 41.9999C25.7123 41.3592 25.7974 40.3473 25.0003 39.9999C23.8395 39.4904 22.2385 39.7838 21.0003 39.9999C20.4277 40.1003 20.1009 40.3824 20.0003 40.9999C19.8997 41.6406 20.389 41.861 21.0003 41.9999C22.0063 42.216 21.9616 43.2511 22.0003 43.9999C22.0777 45.482 22.6057 46.5795 23.0003 47.9999C24.5403 53.5347 27.2334 58.7732 32.0003 61.9999C37.5489 65.7515 44.3899 65.7592 50.0003 61.9999C53.3124 59.7767 54.9866 56.7052 56.0003 52.9999C57.0605 49.1248 57.2944 45.0371 57.0003 40.9999C56.9462 40.3052 57.4354 39.5711 58.0003 38.9999C58.7123 38.282 57.9754 37.301 57.0003 36.9999C55.7389 36.6139 54.2385 36.4055 53.0003 36.9999C52.4431 37.2701 52.9462 38.3746 53.0003 38.9999C53.0468 39.5557 52.4664 39.9536 53.0003 39.9999C54.0837 40.1003 54.0081 40.2357 54.0003 40.9999C54.0003 41.5557 54.0003 42.4441 54.0003 42.9999H55.0003ZM35.0003 31.9999C34.9771 30.9501 34.929 30.0385 34.0003 29.9999C33.0021 29.9613 32.0003 31.035 32.0003 31.9999C32.0003 33.0266 33.0098 33.969 34.0003 33.9999C35.1069 34.0308 35.0235 33.1655 35.0003 31.9999ZM43.0003 30.9999C43.0235 32.0266 43.0562 33.0076 44.0003 32.9999C44.8903 32.9922 46.0158 31.9803 46.0003 30.9999C45.9848 30.1199 44.8903 29.0231 44.0003 28.9999C42.9401 28.9767 42.9771 29.9115 43.0003 30.9999Z" fill="#BADEE0"/>
</svg>
